<svg width="32" height="32" fill="none" xmlns="http://www.w3.org/2000/svg"><circle cx="16" cy="16" r="16" fill="#F8FAF1"/><g clip-path="url(#clip0)" stroke="#667820" stroke-width="1.5" stroke-miterlimit="10"><path d="M16.2 7.8c1.8 0 3.1.9 3.1 4.1 0 2.3-1.4 4.1-3.1 4.1-1.7-.1-3.1-2-3.1-4.2 0-3.1 1.4-4 3.1-4zm-2.1 8.6c-.9.7-1.3.9-1.8 1.2-1.3.6-2.5.9-2.5 2.4v.8c0 .9.2 1 1.1 1.5 1.6.9 3.2 1.2 5.4 1.1 2.2 0 3.9-.3 5.4-1.1.9-.5 1.1-.5 1.1-1.5V20c0-1.6-1.3-1.8-2.5-2.4-.6-.3-.9-.4-1.8-1.2"/></g><defs><clipPath id="clip0"><path fill="#fff" transform="translate(9 7)" d="M0 0h14.5v17.1H0z"/></clipPath></defs></svg>