<svg width="24" height="24" fill="none" xmlns="http://www.w3.org/2000/svg"><g clip-path="url(#clip0)" stroke="#667820" stroke-width="1.5" stroke-miterlimit="10"><path d="M8.6 20.4c.1.5-.8 1.2-1.4.8C5.7 20 4.4 18.9 3 17.7c-1.5-1.4-1.3-2.9.5-4 1.1-.6 2-.7 2.7-.2"/><path d="M2.5 17.1c-.5.6-.9 1.2-1.2 1.8-1 1.9-.5 3.7 1.9 3 1-.3 2.1-.9 3.2-1.5m9.9-3.3c.5.6.9 1.2 1.2 1.8 1 1.9.6 3.7-1.9 3-1-.3-2.1-.9-3.2-1.5l3.9-3.3zm-6.1 3.3c-.1.5.8 1.2 1.4.8 1.4-1.1 2.7-2.3 4.1-3.4 1.5-1.4 1.3-2.9-.5-4-1.1-.6-2-.7-2.7-.2l-2.3 6.8zm-.8 1c-.3 0-.6-.3-.7-.6-.8-2-1.5-4.1-2.3-6.1-.7-2.4.3-3.9 3-3.9 2.6 0 3.7 1.4 3 3.9-.8 2-1.5 4.1-2.3 6.1-.1.3-.4.6-.7.6z"/><path d="M11.4 9.6V7.3h11.4v7.1c0 1.4-1.2 2.6-2.6 2.6h-1.9"/><path d="M19.7 1.8h-4.2c-.6 0-1.2.5-1.2 1.2 0 .6.5 1.2 1.2 1.2h1.3c.6 0 1.2.5 1.2 1.2" stroke-linecap="round"/></g><defs><clipPath id="clip0"><path fill="#fff" transform="translate(0 1)" d="M0 0h23.5v21.8H0z"/></clipPath></defs></svg>