<svg width="24" height="24" fill="none" xmlns="http://www.w3.org/2000/svg"><g clip-path="url(#clip0)" stroke="#667820" stroke-width="1.5" stroke-miterlimit="10"><path d="M2.4 6.9c-2.6 2 3.2 4.5 4.4 5.7 2.1 2.1 1.4 3.6 4.5 5.5 3.3 2 9.5 1.3 10.2-2.5.7-3.3-2.3-6-4.9-7.6-2.3-1.4-5-2.2-8.4-2.2-2.1.1-4 .2-5.8 1.1z"/><path d="M10.1 8c-.2 0-4.3 1.1-4.3 1.1m8.3.4c-.2.1-4.2 1.1-4.2 1.1m7.6 1c-.3.1-5.8 1.6-5.8 1.6m6.9 1.5c-.3.1-4.8 1.3-4.8 1.3" stroke-linecap="round"/><path d="M1.8 7.9v3.2c.1 2.1 1 2.6 2.5 3.7 1.6 1.2 1.5 1.2 2.3 3 .1.1.1.2.2.4 1.6 3.5 2.5 3.9 6.2 4.5 3.7.6 8.9-.7 8.8-3.1v-1.4M12.8 1c.4 1.3.5 1.2.2 2s-.2.7-.1 1.5M16.7.8c.3 1.2.4 1.2.2 2-.3.8-.2.7-.1 1.5m3.4.2c.4 1.2.5 1.2.2 2s-.2.7-.1 1.5" stroke-linecap="round"/></g><defs><clipPath id="clip0"><path fill="#fff" transform="translate(1)" d="M0 0h21.4v23.5H0z"/></clipPath></defs></svg>