<svg width="24" height="24" fill="none" xmlns="http://www.w3.org/2000/svg"><g clip-path="url(#clip0)" stroke="#667820" stroke-width="1.5" stroke-miterlimit="10"><path d="M20.5 7.2c2.5 3.9 2 9.2-1.4 12.6-4 4-10.4 4-14.4 0s-4-10.4 0-14.4c3.2-3.2 7.9-3.8 11.7-1.9"/><path d="M15.3 14.9c0 .1-.1.2-.1.3-.2.5-.6 1-1 1.5-1.9 2-5.1 2-7 0-2-1.9-2-5.1 0-7 .4-.4.9-.8 1.5-1 .1 0 .1-.1.2-.1.6-.3 1.7-.7 2.2-.8 2.2-.5 1.5-.2 3.5-1.7.1-.1.2-.1.3-.2.5-.5 1.4-.5 2.2 0l1.5-1.5c.4-.6.5-1.4.5-2.3-.1-.3.1-.7.3-1 .5-.4 1.2-.4 1.7 0 .4.5.4 1.2 0 1.7.5-.4 1.2-.4 1.7 0 .4.5.4 1.2 0 1.7-.3.3-.7.4-1 .3-.9-.1-1.7.1-2.2.5L18 6.8c.5.8.4 1.6 0 2.2-.1.1-.1.2-.2.3-1.5 1.9-1.2 1.3-1.7 3.5-.1.5-.6 1.5-.8 2.1z" stroke-linejoin="round"/><path d="M19.9 13.6c-.2 1.7-1 3.4-2.3 4.7-1.4 1.4-3 2.1-4.8 2.3M4.5 9.4c.4-.9 1-1.8 1.7-2.6 1.9-1.9 4.5-2.7 7-2.3"/></g><defs><clipPath id="clip0"><path fill="#fff" transform="translate(1)" d="M0 0h22.8v23.5H0z"/></clipPath></defs></svg>