<svg width="24" height="24" fill="none" xmlns="http://www.w3.org/2000/svg"><path d="M8.2 4c1.8 0 3.2 1 3.2 4.1 0 2.3-1.4 4.1-3.1 4.1-1.8 0-3.1-1.9-3.1-4.2-.1-3 1.3-4 3-4zm-2.1 8.7c-.9.7-1.3.9-1.8 1.2-1.3.6-2.5.9-2.5 2.4v.8c0 .9.2 1 1.1 1.5 1.6.9 3.2 1.2 5.4 1.1 2.2 0 3.9-.3 5.4-1.1.9-.5 1.1-.5 1.1-1.5v-.8c0-1.6-1.3-1.8-2.5-2.4-.6-.3-.9-.4-1.8-1.2m6.3-8.9c1.3 0 2.4.7 2.4 3.1 0 1.7-1.1 3.1-2.4 3.1-1.3 0-2.4-1.4-2.4-3.2 0-2.3 1-3 2.4-3zm.3 11.9c1.5 0 2.7-.3 3.8-.9.7-.4.8-.4.8-1.1v-.6c0-1.2-.9-1.4-1.9-1.8-.4-.2-.7-.4-1.4-.9m-3.3 0c-.7.5-.9.7-1.4.9-.2.1-.5.2-.7.3l2.1-1.2z"/></svg>