<svg width="141" height="138" fill="none" xmlns="http://www.w3.org/2000/svg"><g clip-path="url(#clip0)"><path fill-rule="evenodd" clip-rule="evenodd" d="M21.916 88.412c5.216-9.5 9.844-19.734 12.95-30.982-6.961-6.294-8.1-17.044-2.304-24.67 6.142-8.08 17.579-9.557 25.568-3.484a17.93 17.93 0 013.897 4.108c10.271-8.236 25.1-8.71 36.085-.36 10.713 8.143 14.339 22.216 9.541 34.183 1.547.603 2.956 1.387 4.409 2.491 8.08 6.142 9.557 17.579 3.484 25.568-5.659 7.445-16.14 9.361-23.956 4.567l-26.804 21.882c-16.258-18.374-29.865-26.856-42.87-33.303z" fill="#fff"/><path d="M116.272 95.818c6.418-8.443 4.763-20.588-3.68-27.006-1.18-.897-2.499-1.612-3.726-2.26 4.297-12.06.511-26.111-10.293-34.324-10.804-8.212-25.607-8.148-36.401-.166a18.167 18.167 0 00-3.49-3.513c-8.443-6.418-20.588-4.763-27.006 3.68-6.004 7.9-4.912 18.9 2.093 25.514-2.662 9.722-6.647 19.298-12.648 30.208l-.53.886.955.44c12.21 5.985 25.933 14.125 42.416 32.957l.588.734 27.033-21.995c8.273 4.57 18.823 2.562 24.689-5.155zm-25.833 2.137c-1.815-1.38-3.355-3.124-4.415-4.932l-1.74.97c1.263 2.106 2.825 4.009 4.913 5.596l.545.414-25.04 20.503c-16.145-18.146-29.548-26.33-41.507-32.268 5.586-10.365 9.455-19.6 12.092-28.912 1.998 1.519 4.18 2.605 6.639 3.328l.56-1.867c-2.118-.607-4.21-1.624-5.935-2.935-7.626-5.797-9.016-16.594-3.288-24.13 5.797-7.626 16.663-9.107 24.199-3.379 4.267 3.244 6.812 8.187 6.823 13.638l1.87-.01c0-3.581-1.049-7.1-2.923-10.1 10.13-7.485 24.043-7.509 34.12.151 12.438 9.455 14.877 27.352 5.423 39.79-.621.817-1.333 1.565-2.252 2.586l1.405 1.355c.919-1.02 1.7-1.86 2.321-2.677 1.518-1.997 2.695-4.11 3.691-6.362 1.136.577 2.273 1.155 3.272 1.914 7.626 5.797 9.107 16.663 3.31 24.29-5.59 7.353-16.457 8.834-24.083 3.037z" fill="#D7DBEB"/><path d="M46.69 62.98l.262 1.919c4.634-.632 12.3 2.474 19.382 7.857C73.324 78.07 78.368 84.626 79 89.26l1.918-.262c-.697-5.113-5.966-12.127-13.41-17.786-7.605-5.637-15.704-8.928-20.817-8.231z" fill="#D7DBEB"/></g><defs><clipPath id="clip0"><path fill="#fff" transform="rotate(37.24 28.088 83.364)" d="M0 0h105.828v92.828H0z"/></clipPath></defs></svg>