<svg width="29" height="32" fill="none" xmlns="http://www.w3.org/2000/svg"><path d="M4.813.988H22.46l5.676 5.684v20.51c0 2.1-1.727 3.83-3.825 3.83H4.813c-2.098 0-3.826-1.73-3.826-3.83V4.819c0-2.1 1.728-3.83 3.826-3.83z" stroke="#444" stroke-width="1.5" stroke-miterlimit="10"/><path d="M28.136 8.03h-4.319c-1.48 0-2.838-1.235-2.838-2.84V.987" stroke="#444" stroke-width="1.5" stroke-miterlimit="10"/><path d="M5 25.865v-1.851h1.75v1.85H5zm3.034 0l2.553-3.622-2.46-3.513h1.736l1.606 2.351 1.605-2.351h1.698l-2.46 3.473 2.565 3.662H13.14l-1.71-2.5-1.698 2.5H8.034zm8.331 0V16h1.593v9.865h-1.593zM22.42 26c-1.087 0-2.07-.356-2.947-1.068l.71-1.108c.755.586 1.514.879 2.277.879.342 0 .605-.068.79-.203a.701.701 0 00.29-.595.512.512 0 00-.106-.324c-.061-.099-.175-.19-.342-.27a3.233 3.233 0 00-.421-.176 93.02 93.02 0 00-.566-.176l-.119-.04c-.245-.072-.456-.14-.631-.203a6.474 6.474 0 01-.566-.284 2.213 2.213 0 01-.513-.378 1.792 1.792 0 01-.33-.54 1.926 1.926 0 01-.131-.73c0-.658.232-1.185.697-1.581.474-.397 1.066-.595 1.777-.595.904 0 1.755.27 2.553.81l-.632 1.163c-.719-.45-1.373-.676-1.96-.676-.308 0-.549.068-.724.203a.66.66 0 00-.25.54c0 .154.074.293.224.42.157.126.31.22.46.283l.75.257c.018.01.04.018.066.027a.211.211 0 00.066.014 6.6 6.6 0 01.776.297c.21.09.43.216.658.378.237.162.417.365.54.608.123.235.184.51.184.825 0 .72-.241 1.274-.724 1.662-.482.387-1.1.581-1.855.581z" fill="#444"/></svg>