<svg width="32" height="32" viewBox="0 0 32 32" fill="none" xmlns="http://www.w3.org/2000/svg">
<circle cx="16" cy="16" r="16" fill="#F8FAF1"/>
<g clip-path="url(#clip0)">
<path d="M16.2 7.8C18 7.8 19.3 8.7 19.3 11.9C19.3 14.2 17.9 16 16.2 16C14.5 15.9 13.1 14 13.1 11.8C13.1 8.7 14.5 7.8 16.2 7.8Z" stroke="#667820" stroke-width="1.5" stroke-miterlimit="10"/>
<path d="M14.1 16.4C13.2 17.1 12.8 17.3 12.3 17.6C11 18.2 9.80005 18.5 9.80005 20C9.80005 20.4 9.80005 20.6 9.80005 20.8C9.80005 21.7 10 21.8 10.9 22.3C12.5 23.2 14.1 23.5 16.3 23.4C18.5 23.4 20.2 23.1 21.7 22.3C22.6 21.8 22.8 21.8 22.8 20.8C22.8 20.6 22.8 20.4 22.8 20C22.8 18.4 21.5 18.2 20.3 17.6C19.7 17.3 19.4 17.2 18.5 16.4" stroke="#667820" stroke-width="1.5" stroke-miterlimit="10"/>
</g>
<defs>
<clipPath id="clip0">
<rect width="14.5" height="17.1" fill="white" transform="translate(9 7)"/>
</clipPath>
</defs>
</svg>
