<svg width="24" height="24" viewBox="0 0 24 24" fill="none" xmlns="http://www.w3.org/2000/svg">
<g clip-path="url(#clip0)">
<path d="M8.59994 20.4C8.69994 20.9 7.79994 21.6 7.19994 21.2C5.69994 20 4.39994 18.9 2.99994 17.7C1.49994 16.3 1.69994 14.8 3.49994 13.7C4.59994 13.1 5.49994 13 6.19994 13.5" stroke="#667820" stroke-width="1.5" stroke-miterlimit="10"/>
<path d="M2.50006 17.1C2.00006 17.7 1.60006 18.3 1.30006 18.9C0.300058 20.8 0.800058 22.6 3.20006 21.9C4.20006 21.6 5.30006 21 6.40006 20.4" stroke="#667820" stroke-width="1.5" stroke-miterlimit="10"/>
<path d="M16.3 17.1C16.8 17.7 17.2 18.3 17.5 18.9C18.5 20.8 18.1 22.6 15.6 21.9C14.6 21.6 13.5 21 12.4 20.4L16.3 17.1ZM10.2 20.4C10.1 20.9 11 21.6 11.6 21.2C13 20.1 14.3 18.9 15.7 17.8C17.2 16.4 17 14.9 15.2 13.8C14.1 13.2 13.2 13.1 12.5 13.6L10.2 20.4ZM9.40001 21.4C9.10001 21.4 8.80001 21.1 8.70001 20.8C7.90001 18.8 7.20001 16.7 6.40001 14.7C5.70001 12.3 6.70001 10.8 9.40001 10.8C12 10.8 13.1 12.2 12.4 14.7C11.6 16.7 10.9 18.8 10.1 20.8C10 21.1 9.70001 21.4 9.40001 21.4Z" stroke="#667820" stroke-width="1.5" stroke-miterlimit="10"/>
<path d="M11.3999 9.6V7.3H22.7999V14.4C22.7999 15.8 21.5999 17 20.1999 17H18.2999" stroke="#667820" stroke-width="1.5" stroke-miterlimit="10"/>
<path d="M19.7 1.8H15.5C14.9 1.8 14.3 2.3 14.3 3C14.3 3.6 14.8 4.2 15.5 4.2H16.8C17.4 4.2 18 4.7 18 5.4" stroke="#667820" stroke-width="1.5" stroke-miterlimit="10" stroke-linecap="round"/>
</g>
<defs>
<clipPath id="clip0">
<rect width="23.5" height="21.8" fill="white" transform="translate(0 1)"/>
</clipPath>
</defs>
</svg>
