<svg width="24" height="24" viewBox="0 0 24 24" fill="none" xmlns="http://www.w3.org/2000/svg">
<g clip-path="url(#clip0)">
<path d="M2.39991 6.9C-0.200091 8.9 5.59991 11.4 6.79991 12.6C8.89991 14.7 8.19991 16.2 11.2999 18.1C14.5999 20.1 20.7999 19.4 21.4999 15.6C22.1999 12.3 19.1999 9.6 16.5999 8C14.2999 6.6 11.5999 5.8 8.19991 5.8C6.09991 5.9 4.19991 6 2.39991 6.9Z" stroke="#667820" stroke-width="1.5" stroke-miterlimit="10"/>
<path d="M10.1 8C9.90005 8 5.80005 9.1 5.80005 9.1" stroke="#667820" stroke-width="1.5" stroke-miterlimit="10" stroke-linecap="round"/>
<path d="M14.0999 9.5C13.8999 9.6 9.8999 10.6 9.8999 10.6" stroke="#667820" stroke-width="1.5" stroke-miterlimit="10" stroke-linecap="round"/>
<path d="M17.5 11.6C17.2 11.7 11.7 13.2 11.7 13.2" stroke="#667820" stroke-width="1.5" stroke-miterlimit="10" stroke-linecap="round"/>
<path d="M18.6 14.7C18.3 14.8 13.8 16 13.8 16" stroke="#667820" stroke-width="1.5" stroke-miterlimit="10" stroke-linecap="round"/>
<path d="M1.80005 7.9C1.80005 9.2 1.80005 9.9 1.80005 11.1C1.90005 13.2 2.80005 13.7 4.30005 14.8C5.90005 16 5.80005 16 6.60005 17.8C6.70005 17.9 6.70005 18 6.80005 18.2C8.40005 21.7 9.30005 22.1 13 22.7C16.7 23.3 21.9 22 21.8 19.6C21.8 19.2 21.8 18.7 21.8 18.2" stroke="#667820" stroke-width="1.5" stroke-miterlimit="10" stroke-linecap="round"/>
<path d="M12.8 1C13.2 2.3 13.3 2.2 13 3C12.7 3.8 12.8 3.7 12.9 4.5" stroke="#667820" stroke-width="1.5" stroke-miterlimit="10" stroke-linecap="round"/>
<path d="M16.7 0.8C17 2 17.1 2 16.9 2.8C16.6 3.6 16.7 3.5 16.8 4.3" stroke="#667820" stroke-width="1.5" stroke-miterlimit="10" stroke-linecap="round"/>
<path d="M20.2 4.5C20.6 5.7 20.7 5.7 20.4 6.5C20.1 7.3 20.2 7.2 20.3 8" stroke="#667820" stroke-width="1.5" stroke-miterlimit="10" stroke-linecap="round"/>
</g>
<defs>
<clipPath id="clip0">
<rect width="21.4" height="23.5" fill="white" transform="translate(1)"/>
</clipPath>
</defs>
</svg>
