<svg width="24" height="24" viewBox="0 0 24 24" fill="none" xmlns="http://www.w3.org/2000/svg">
<g clip-path="url(#clip0)">
<path d="M20.5 7.2C23 11.1 22.5 16.4 19.1 19.8C15.1 23.8 8.69995 23.8 4.69995 19.8C0.699951 15.8 0.699951 9.4 4.69995 5.4C7.89995 2.2 12.6 1.6 16.4 3.5" stroke="#667820" stroke-width="1.5" stroke-miterlimit="10"/>
<path d="M15.3 14.9C15.3 15 15.2 15.1 15.2 15.2C15 15.7 14.6 16.2 14.2 16.7C12.3 18.7 9.09995 18.7 7.19995 16.7C5.19995 14.8 5.19995 11.6 7.19995 9.7C7.59995 9.3 8.09995 8.9 8.69995 8.7C8.79995 8.7 8.79995 8.6 8.89995 8.6C9.49995 8.3 10.6 7.9 11.1 7.8C13.3 7.3 12.6 7.6 14.6 6.1C14.7 6 14.8 6 14.9 5.9C15.4 5.4 16.3 5.4 17.1 5.9L18.6 4.4C19 3.8 19.1 3 19.1 2.1C19 1.8 19.2 1.4 19.4 1.1C19.9 0.700003 20.6 0.700003 21.1 1.1C21.5 1.6 21.5 2.3 21.1 2.8C21.6 2.4 22.2999 2.4 22.7999 2.8C23.1999 3.3 23.1999 4 22.7999 4.5C22.4999 4.8 22.0999 4.9 21.7999 4.8C20.8999 4.7 20.1 4.9 19.6 5.3L18 6.8C18.5 7.6 18.4 8.4 18 9C17.9 9.1 17.9 9.2 17.8 9.3C16.3 11.2 16.6 10.6 16.1 12.8C16 13.3 15.5 14.3 15.3 14.9Z" stroke="#667820" stroke-width="1.5" stroke-miterlimit="10" stroke-linejoin="round"/>
<path d="M19.9 13.6C19.7 15.3 18.9 17 17.6 18.3C16.2 19.7 14.6 20.4 12.8 20.6" stroke="#667820" stroke-width="1.5" stroke-miterlimit="10"/>
<path d="M4.5 9.4C4.9 8.5 5.5 7.6 6.2 6.8C8.1 4.9 10.7 4.1 13.2 4.5" stroke="#667820" stroke-width="1.5" stroke-miterlimit="10"/>
</g>
<defs>
<clipPath id="clip0">
<rect width="22.8" height="23.5" fill="white" transform="translate(1)"/>
</clipPath>
</defs>
</svg>
