<svg width="24" height="24" viewBox="0 0 24 24" fill="none" xmlns="http://www.w3.org/2000/svg">
<circle cx="12" cy="12" r="12" fill="#F8FAF1"/>
<path fill-rule="evenodd" clip-rule="evenodd" d="M12 6C14.7632 6 17 8.16446 17 10.8382C17 11.5703 16.8355 12.2706 16.5395 12.8753C15.8487 14.4987 13.875 16.5358 12 18C10.125 16.5358 8.15132 14.4987 7.46053 12.8753C7.16447 12.2387 7 11.5703 7 10.8382C7 8.16446 9.23684 6 12 6ZM12 9.0557C13.0197 9.0557 13.8421 9.85146 13.8421 10.8382C13.8421 11.8249 13.0197 12.6207 12 12.6207C10.9803 12.6207 10.1579 11.8249 10.1579 10.8382C10.1579 9.85146 10.9803 9.0557 12 9.0557Z" fill="#667820"/>
</svg>
