<svg width="24" height="24" viewBox="0 0 24 24" fill="none" xmlns="http://www.w3.org/2000/svg">

        <path d="M3.39995 16.1H20C20.9 16.1 21.7 16.9 21.7 17.8C21.7 18.7 20.9 19.5 20 19.5H3.39995C2.49995 19.5 1.69995 18.7 1.69995 17.8C1.79995 16.9 2.49995 16.1 3.39995 16.1Z"
               stroke-width="1.5" stroke-miterlimit="10"/>
        <path d="M2.8999 16.2C2.8999 11.2 6.8999 7.19995 11.7999 7.19995C16.6999 7.19995 20.6999 11.2 20.6999 16.1V16.2"
               stroke-width="1.5" stroke-miterlimit="10"/>
        <path d="M11.7 7.29995C12.5 7.29995 13 6.69995 13 5.99995C13 5.29995 12.4 4.69995 11.7 4.69995C11 4.79995 10.5 5.29995 10.5 5.99995C10.5 6.69995 11 7.29995 11.7 7.29995Z"
               stroke-width="1.5" stroke-miterlimit="10"/>
</svg>
