<svg width="24" height="24" viewBox="0 0 24 24" fill="none" xmlns="http://www.w3.org/2000/svg">

        <path d="M8.20011 4C10.0001 4 11.4001 5 11.4001 8.1C11.4001 10.4 10.0001 12.2 8.30011 12.2C6.50011 12.2 5.20011 10.3 5.20011 8C5.10011 5 6.50011 4 8.20011 4Z"
               stroke-width="1.5" stroke-miterlimit="10"/>
        <path d="M6.10005 12.7C5.20005 13.4 4.80005 13.6 4.30005 13.9C3.00005 14.5 1.80005 14.8 1.80005 16.3C1.80005 16.7 1.80005 16.9 1.80005 17.1C1.80005 18 2.00005 18.1 2.90005 18.6C4.50005 19.5 6.10005 19.8 8.30005 19.7C10.5 19.7 12.2 19.4 13.7 18.6C14.6 18.1 14.8 18.1 14.8 17.1C14.8 16.9 14.8 16.7 14.8 16.3C14.8 14.7 13.5 14.5 12.3 13.9C11.7 13.6 11.4 13.5 10.5 12.7"
               stroke-width="1.5" stroke-miterlimit="10"/>
        <path d="M16.7999 3.80005C18.0999 3.80005 19.1999 4.50005 19.1999 6.90005C19.1999 8.60005 18.0999 10 16.7999 10C15.4999 10 14.3999 8.60005 14.3999 6.80005C14.3999 4.50005 15.3999 3.80005 16.7999 3.80005Z"
               stroke-width="1.5" stroke-miterlimit="10"/>
        <path d="M17.1 15.7C18.6 15.7 19.8 15.4 20.9 14.8C21.6 14.4 21.7 14.4 21.7 13.7C21.7 13.5 21.7 13.4 21.7 13.1C21.7 11.9 20.8 11.7 19.8 11.3C19.4 11.1 19.1 10.9 18.4 10.4M15.1 10.4C14.4 10.9 14.2 11.1 13.7 11.3C13.5 11.4 13.2 11.5 13 11.6L15.1 10.4Z"
               stroke-width="1.5" stroke-miterlimit="10"/>

</svg>
