<svg width="24" height="24" viewBox="0 0 24 24" fill="none" xmlns="http://www.w3.org/2000/svg">

        <path d="M12.4 1.80005C17.2 1.80005 21 5.70005 21 10.4C21 14.3 17.7 18.1 14.6 20.9C13.3 22 11.4 22 10.2 20.9C7.10005 18.1 3.80005 14.3 3.80005 10.4C3.80005 5.60005 7.60005 1.80005 12.4 1.80005ZM12.4 7.30005C14.1 7.30005 15.5 8.70005 15.5 10.4C15.5 12.1 14.1 13.5 12.4 13.5C10.7 13.5 9.30005 12.1 9.30005 10.4C9.30005 8.70005 10.7 7.30005 12.4 7.30005Z"
              stroke-width="1.5" stroke-miterlimit="10"/>

</svg>
