<svg width="141" height="138" viewBox="0 0 141 138" fill="none" xmlns="http://www.w3.org/2000/svg">
<g clip-path="url(#clip0)">
<path fill-rule="evenodd" clip-rule="evenodd" d="M21.9163 88.4118C27.1323 78.9116 31.7601 68.6778 34.8663 57.4305C27.9048 51.1361 26.7654 40.386 32.5623 32.7599C38.7043 24.6798 50.1409 23.2027 58.1302 29.2757C59.6735 30.4489 61.0099 31.8944 62.0266 33.3836C72.298 25.1477 87.1264 24.6733 98.1117 33.0237C108.825 41.167 112.451 55.2404 107.653 67.2065C109.2 67.8095 110.609 68.5941 112.062 69.6983C120.142 75.8403 121.619 87.2768 115.546 95.2661C109.887 102.711 99.4054 104.627 91.5903 99.8327L64.786 121.715C48.5284 103.341 34.921 94.8593 21.9163 88.4118Z" fill="white"/>
<path d="M116.272 95.8182C122.69 87.375 121.035 75.2303 112.592 68.8122C111.412 67.9151 110.093 67.1995 108.866 66.5529C113.163 54.4923 109.377 40.4407 98.573 32.2283C87.7693 24.016 72.9663 24.08 62.172 32.0616C61.1771 30.7323 59.9533 29.5156 58.6822 28.5494C50.239 22.1313 38.0943 23.7863 31.6762 32.2295C25.6722 40.1281 26.7644 51.1287 33.7694 57.7428C31.1065 67.4647 27.1216 77.0413 21.1209 87.9505L20.5906 88.8366L21.5457 89.2761C33.7551 95.2624 47.4788 103.402 63.9616 122.234L64.5498 122.968L91.5829 100.973C99.8556 105.543 110.406 103.535 116.272 95.8182ZM90.4392 97.955C88.6235 96.5748 87.0838 94.8314 86.0235 93.0227L84.2838 93.9922C85.5474 96.0987 87.1089 98.0019 89.197 99.5892C89.3786 99.7272 89.5602 99.8652 89.7417 100.003L64.7026 120.506C48.5575 102.36 35.1535 94.1766 23.1946 88.2376C28.7812 77.8731 32.6499 68.6379 35.2874 59.3263C37.2847 60.8446 39.4673 61.9307 41.9259 62.6536L42.4854 60.787C40.3681 60.1803 38.2763 59.1632 36.5513 57.852C28.9252 52.055 27.5352 41.2577 33.2632 33.7223C39.0601 26.0962 49.9265 24.6154 57.4618 30.3434C61.7288 33.5869 64.2742 38.5299 64.2846 43.9812L66.155 43.9705C66.1553 40.3896 65.106 36.8703 63.2323 33.8703C73.362 26.3862 87.2752 26.362 97.3526 34.0223C109.79 43.4769 112.229 61.3744 102.775 73.8122C102.154 74.6293 101.442 75.3774 100.523 76.3978L101.928 77.7526C102.847 76.7322 103.628 75.8933 104.249 75.0762C105.767 73.0789 106.944 70.9653 107.94 68.7137C109.076 69.2913 110.213 69.8688 111.212 70.628C118.838 76.4249 120.319 87.2913 114.522 94.9174C108.932 102.271 98.0654 103.752 90.4392 97.955Z" fill="#D7DBEB"/>
<path d="M46.6907 62.9809L46.952 64.8985C51.5862 64.267 59.2525 67.3728 66.334 72.7557C73.3246 78.0696 78.3685 84.6254 79 89.2595L80.9176 88.9982C80.2208 83.8847 74.9517 76.8713 67.5072 71.2123C59.9028 65.5752 51.8043 62.2841 46.6907 62.9809Z" fill="#D7DBEB"/>
</g>
<defs>
<clipPath id="clip0">
<rect width="105.828" height="92.8279" fill="white" transform="translate(56.1753) rotate(37.24)"/>
</clipPath>
</defs>
</svg>
