<svg width="29" height="32" viewBox="0 0 29 32" fill="none" xmlns="http://www.w3.org/2000/svg">
<path d="M4.81284 0.988419H22.4596L28.1362 6.67182V27.1815C28.1362 29.2819 26.4086 31.0116 24.3107 31.0116H4.81284C2.71496 31.0116 0.987305 29.2819 0.987305 27.1815V4.81853C0.987305 2.71815 2.71496 0.988419 4.81284 0.988419Z" stroke="#444444" stroke-width="1.5" stroke-miterlimit="10"/>
<path d="M28.1362 8.03089H23.8171C22.3362 8.03089 20.9788 6.79537 20.9788 5.18919V0.988419" stroke="#444444" stroke-width="1.5" stroke-miterlimit="10"/>
<path d="M5 25.8649V24.0135H6.75027V25.8649H5Z" fill="#444444"/>
<path d="M8.03408 25.8649L10.5871 22.2432L8.1262 18.7297H9.86331L11.4688 21.0811L13.0743 18.7297H14.772L12.3111 22.2027L14.8772 25.8649H13.1401L11.4293 23.3649L9.73171 25.8649H8.03408Z" fill="#444444"/>
<path d="M16.3653 25.8649V16H17.9577V25.8649H16.3653Z" fill="#444444"/>
<path d="M22.4207 26C21.3328 26 20.3502 25.6441 19.4728 24.9324L20.1835 23.8243C20.938 24.4099 21.6969 24.7027 22.4601 24.7027C22.8023 24.7027 23.0655 24.6351 23.2497 24.5C23.4427 24.3559 23.5392 24.1577 23.5392 23.9054C23.5392 23.7793 23.5042 23.6712 23.434 23.5811C23.3726 23.482 23.2585 23.3919 23.0918 23.3108C22.9251 23.2297 22.7847 23.1712 22.6707 23.1351C22.5566 23.0991 22.368 23.0405 22.1048 22.9595L21.9864 22.9189C21.7407 22.8468 21.5302 22.7793 21.3547 22.7162C21.188 22.6441 20.9994 22.5495 20.7888 22.4324C20.5783 22.3153 20.4072 22.1892 20.2756 22.0541C20.144 21.9099 20.0343 21.7297 19.9466 21.5135C19.8589 21.2973 19.815 21.0541 19.815 20.7838C19.815 20.1261 20.0475 19.5991 20.5125 19.2027C20.9862 18.8063 21.5784 18.6081 22.2891 18.6081C23.1927 18.6081 24.0437 18.8784 24.8421 19.4189L24.2104 20.5811C23.491 20.1306 22.8374 19.9054 22.2496 19.9054C21.9425 19.9054 21.7012 19.973 21.5258 20.1081C21.3591 20.2432 21.2757 20.4234 21.2757 20.6486C21.2757 20.8018 21.3503 20.9414 21.4995 21.0676C21.6574 21.1937 21.8109 21.2883 21.9601 21.3514C22.118 21.4054 22.368 21.491 22.7102 21.6081C22.7277 21.6171 22.7497 21.6261 22.776 21.6351C22.8023 21.6441 22.8242 21.6486 22.8418 21.6486C23.1488 21.7477 23.4076 21.8468 23.6182 21.9459C23.8288 22.036 24.0481 22.1622 24.2762 22.3243C24.5131 22.4865 24.6929 22.6892 24.8158 22.9324C24.9386 23.1667 25 23.4414 25 23.7568C25 24.4775 24.7587 25.0315 24.2762 25.4189C23.7937 25.8063 23.1752 26 22.4207 26Z" fill="#444444"/>
</svg>
